<?xml version="1.0" encoding="UTF-8" standalone="no"?>
<svg
   xmlns:dc="http://purl.org/dc/elements/1.1/"
   xmlns:cc="http://creativecommons.org/ns#"
   xmlns:rdf="http://www.w3.org/1999/02/22-rdf-syntax-ns#"
   xmlns:svg="http://www.w3.org/2000/svg"
   xmlns="http://www.w3.org/2000/svg"
   xmlns:sodipodi="http://sodipodi.sourceforge.net/DTD/sodipodi-0.dtd"
   xmlns:inkscape="http://www.inkscape.org/namespaces/inkscape"
   height="32"
   width="32"
   version="1.1"
   id="svg2"
   inkscape:version="0.48.4 r9939"
   sodipodi:docname="groupmanager.svg">
  <metadata
     id="metadata14">
    <rdf:RDF>
      <cc:Work
         rdf:about="">
        <dc:format>image/svg+xml</dc:format>
        <dc:type
           rdf:resource="http://purl.org/dc/dcmitype/StillImage" />
      </cc:Work>
    </rdf:RDF>
  </metadata>
  <defs
     id="defs12" />
  <sodipodi:namedview
     pagecolor="#ffffff"
     bordercolor="#666666"
     borderopacity="1"
     objecttolerance="10"
     gridtolerance="10"
     guidetolerance="10"
     inkscape:pageopacity="0"
     inkscape:pageshadow="2"
     inkscape:window-width="1364"
     inkscape:window-height="747"
     id="namedview10"
     showgrid="false"
     inkscape:zoom="15.819376"
     inkscape:cx="19.117225"
     inkscape:cy="15.801157"
     inkscape:window-x="0"
     inkscape:window-y="19"
     inkscape:window-maximized="0"
     inkscape:current-layer="svg2" />
  <g
     id="g3026"
     transform="translate(1.3906995,-0.06321362)">
    <path
       inkscape:connector-curvature="0"
       id="path3006-9"
       d="m 20.059158,17.205926 c -1.059857,0 -1.958963,0.775102 -1.958963,1.775361 0.0075,0.316159 0.03579,0.706034 0.224467,1.5305 l 0,0.02042 0.02042,0.02043 c 0.06056,0.173485 0.148705,0.272731 0.265277,0.408135 0.116573,0.135398 0.255551,0.29477 0.387709,0.428536 0.01557,0.01576 0.02552,0.02547 0.04079,0.04084 0.02623,0.114059 0.05796,0.236806 0.08163,0.346913 0.06297,0.292948 0.05652,0.500393 0.0408,0.571367 -0.455427,0.159915 -1.022014,0.350355 -1.530451,0.571367 -0.285431,0.124093 -0.543714,0.234901 -0.755014,0.36732 -0.211301,0.132414 -0.421439,0.23246 -0.489729,0.530572 -9.39e-4,0.01356 0,0.04084 0,0.04084 -0.06674,0.612828 -0.167697,1.514028 -0.244869,2.122285 -0.01666,0.128041 0.05082,0.263011 0.163245,0.326506 0.923098,0.498631 2.341113,0.699321 3.754652,0.693846 1.41354,-0.0055 2.820273,-0.218002 3.713857,-0.693846 0.112421,-0.06349 0.179907,-0.198465 0.163246,-0.326506 -0.02466,-0.190137 -0.05491,-0.618873 -0.08162,-1.040721 -0.02671,-0.421863 -0.04991,-0.836842 -0.08163,-1.081564 -0.01104,-0.06067 -0.03975,-0.118005 -0.08163,-0.163251 -0.283866,-0.33898 -0.707984,-0.546186 -1.203949,-0.755064 -0.452795,-0.190664 -0.983647,-0.388665 -1.510029,-0.612209 -0.02947,-0.06563 -0.05872,-0.256589 0,-0.550993 0.01576,-0.07905 0.04047,-0.163712 0.06122,-0.244878 0.04947,-0.05541 0.08802,-0.100688 0.142839,-0.163255 0.116911,-0.133439 0.242528,-0.273417 0.3469,-0.408131 0.104372,-0.134717 0.18976,-0.250286 0.244869,-0.408134 l 0.02043,-0.02042 c 0.213289,-0.860882 0.213403,-1.220087 0.224467,-1.5305 l 0,-0.02042 c 0,-1.00026 -0.899107,-1.775362 -1.958964,-1.775362 z"
       style="text-indent:0;text-transform:none;block-progression:tb;color:#000000;fill:#000000" />
    <path
       inkscape:connector-curvature="0"
       id="path3006"
       d="m 19.982793,17.645824 c -1.059857,0 -1.958963,0.775102 -1.958963,1.775361 0.0075,0.316159 0.03579,0.706034 0.224467,1.5305 l 0,0.02042 0.02042,0.02043 c 0.06056,0.173485 0.148705,0.272731 0.265277,0.408135 0.116573,0.135398 0.255551,0.29477 0.387709,0.428536 0.01557,0.01576 0.02552,0.02547 0.04079,0.04084 0.02623,0.114059 0.05796,0.236806 0.08163,0.346913 0.06297,0.292948 0.05652,0.500393 0.0408,0.571367 -0.455427,0.159915 -1.022014,0.350355 -1.530451,0.571367 -0.285431,0.124093 -0.543714,0.234901 -0.755014,0.36732 -0.211301,0.132414 -0.421439,0.23246 -0.489729,0.530572 -9.39e-4,0.01356 0,0.04084 0,0.04084 -0.06674,0.612828 -0.167697,1.514028 -0.244869,2.122285 -0.01666,0.128041 0.05082,0.263011 0.163245,0.326506 0.923098,0.498631 2.341113,0.699321 3.754652,0.693846 1.41354,-0.0055 2.820273,-0.218002 3.713857,-0.693846 0.112421,-0.06349 0.179907,-0.198465 0.163246,-0.326506 -0.02466,-0.190137 -0.05491,-0.618873 -0.08162,-1.040721 -0.02671,-0.421863 -0.04991,-0.836842 -0.08163,-1.081564 -0.01104,-0.06067 -0.03975,-0.118005 -0.08163,-0.163251 -0.283866,-0.33898 -0.707984,-0.546186 -1.203949,-0.755064 -0.452795,-0.190664 -0.983647,-0.388665 -1.510029,-0.612209 -0.02947,-0.06563 -0.05872,-0.256589 0,-0.550993 0.01576,-0.07905 0.04047,-0.163712 0.06122,-0.244878 0.04947,-0.05541 0.08802,-0.100688 0.142839,-0.163255 0.116911,-0.133439 0.242528,-0.273417 0.3469,-0.408131 0.104372,-0.134717 0.18976,-0.250286 0.244869,-0.408134 l 0.02043,-0.02042 c 0.213289,-0.860882 0.213403,-1.220087 0.224467,-1.5305 l 0,-0.02042 c 0,-1.00026 -0.899107,-1.775362 -1.958964,-1.775362 z"
       style="text-indent:0;text-transform:none;block-progression:tb;color:#000000;fill:#ffffff" />
  </g>
  <g
     transform="matrix(0.51468181,0,0,0.51468181,-179.28762,-252.24909)"
     id="g4">
    <path
       style="text-indent:0;text-transform:none;block-progression:tb;color:#000000"
       d="m 367.29,519.28 c -2.2265,0 -4.1153,1.6283 -4.1153,3.7296 0.0158,0.66417 0.0752,1.4832 0.47155,3.2152 v 0.0429 l 0.0429,0.0429 c 0.12723,0.36445 0.31239,0.57294 0.55728,0.85739 0.24489,0.28444 0.53685,0.61924 0.81448,0.90025 0.0327,0.0331 0.0536,0.0535 0.0857,0.0858 0.0551,0.23961 0.12176,0.49747 0.17147,0.72878 0.13227,0.61541 0.11871,1.0512 0.0857,1.2003 -0.95674,0.33594 -2.147,0.73601 -3.2151,1.2003 -0.59962,0.26069 -1.1422,0.49348 -1.5861,0.77165 -0.44388,0.27818 -0.88534,0.48834 -1.0288,1.1146 -0.002,0.0285 -0.002,0.0572 0,0.0858 -0.1402,1.2874 -0.35229,3.1806 -0.51441,4.4584 -0.035,0.26898 0.10676,0.55252 0.34294,0.68591 1.9392,1.0475 4.9181,1.4691 7.8876,1.4576 2.9695,-0.0116 5.9247,-0.45797 7.8019,-1.4576 0.23617,-0.13338 0.37794,-0.41693 0.34294,-0.68591 -0.0518,-0.39943 -0.11534,-1.3001 -0.17147,-2.1863 -0.0561,-0.88623 -0.10486,-1.758 -0.17147,-2.2721 -0.0232,-0.12744 -0.0835,-0.2479 -0.17147,-0.34295 -0.59633,-0.71211 -1.4873,-1.1474 -2.5292,-1.5862 -0.95121,-0.40054 -2.0664,-0.81649 -3.1722,-1.2861 -0.0619,-0.13788 -0.12337,-0.53903 0,-1.1575 0.0331,-0.16606 0.085,-0.34392 0.12861,-0.51443 0.10392,-0.1164 0.18492,-0.21152 0.30007,-0.34296 0.2456,-0.28032 0.50949,-0.57438 0.72875,-0.85738 0.21926,-0.28301 0.39864,-0.52579 0.51441,-0.85739 l 0.0429,-0.0429 c 0.44807,-1.8085 0.44831,-2.5631 0.47155,-3.2152 v -0.0429 c 0,-2.1013 -1.8888,-3.7296 -4.1153,-3.7296 z m 11.772,-3.4224 c -3.2461,0 -5.9999,2.3739 -5.9999,5.4374 0.023,0.9683 0.10964,2.1624 0.68749,4.6874 v 0.0625 l 0.0625,0.0625 c 0.1855,0.53134 0.45545,0.83529 0.81249,1.25 0.35704,0.4147 0.7827,0.90279 1.1875,1.3125 0.0476,0.0482 0.0781,0.0781 0.12499,0.12502 0.0803,0.34932 0.17752,0.72527 0.25,1.0625 0.19284,0.8972 0.17306,1.5326 0.12501,1.75 -1.3949,0.48977 -3.1303,1.073 -4.6874,1.75 -0.87422,0.38005 -1.6653,0.71943 -2.3125,1.125 -0.64717,0.40555 -1.2908,0.71195 -1.5,1.625 -0.003,0.0416 -0.003,0.0834 0,0.12502 -0.20442,1.8769 -0.51363,4.637 -0.74999,6.4999 -0.051,0.39215 0.15566,0.80553 0.49999,0.99999 2.8273,1.5272 7.1704,2.1419 11.5,2.125 4.3294,-0.0168 8.6379,-0.66766 11.375,-2.125 0.34433,-0.19446 0.55102,-0.60784 0.49999,-0.99999 -0.0755,-0.58232 -0.16816,-1.8954 -0.25,-3.1875 -0.0818,-1.292 -0.15288,-2.563 -0.24998,-3.3125 -0.0339,-0.18578 -0.12172,-0.36141 -0.25,-0.49999 -0.86942,-1.0382 -2.1684,-1.6728 -3.6875,-2.3125 -1.3868,-0.58395 -3.0127,-1.1904 -4.6249,-1.875 -0.0902,-0.20102 -0.17988,-0.78586 0,-1.6875 0.0483,-0.2421 0.12394,-0.50141 0.1875,-0.74999 0.15152,-0.1697 0.26961,-0.30838 0.4375,-0.5 0.35807,-0.40868 0.74281,-0.83739 1.0625,-1.25 0.31967,-0.41259 0.58121,-0.76654 0.74999,-1.25 l 0.0625,-0.0625 c 0.65328,-2.6366 0.65362,-3.7367 0.6875,-4.6874 v -0.0625 c 0,-3.0635 -2.7538,-5.4374 -5.9999,-5.4374 z"
       id="path6"
       inkscape:connector-curvature="0" />
    <path
       style="text-indent:0;text-transform:none;block-progression:tb;color:#000000;fill:#ffffff"
       d="m 367.29,520.28 c -2.2265,0 -4.1153,1.6283 -4.1153,3.7296 0.0158,0.66417 0.0752,1.4832 0.47155,3.2152 l 0,0.0429 0.0429,0.0429 c 0.12723,0.36445 0.31239,0.57294 0.55728,0.85739 0.24489,0.28444 0.53685,0.61924 0.81448,0.90025 0.0327,0.0331 0.0536,0.0535 0.0857,0.0858 0.0551,0.23961 0.12176,0.49747 0.17147,0.72878 0.13227,0.61541 0.11871,1.0512 0.0857,1.2003 -0.95674,0.33594 -2.147,0.73601 -3.2151,1.2003 -0.59962,0.26069 -1.14221,0.49347 -1.5861,0.77165 -0.44389,0.27817 -0.88534,0.48834 -1.0288,1.1146 -0.002,0.0285 0,0.0858 0,0.0858 -0.1402,1.2874 -0.35229,3.1806 -0.51441,4.4584 -0.035,0.26898 0.10676,0.55252 0.34294,0.68591 1.9392,1.0475 4.9181,1.4691 7.8876,1.4576 2.9695,-0.0116 5.9247,-0.45797 7.8019,-1.4576 0.23617,-0.13338 0.37794,-0.41693 0.34294,-0.68591 -0.0518,-0.39943 -0.11534,-1.3001 -0.17147,-2.1863 -0.0561,-0.88623 -0.10486,-1.758 -0.17147,-2.2721 -0.0232,-0.12744 -0.0835,-0.2479 -0.17147,-0.34295 -0.59633,-0.71211 -1.4873,-1.1474 -2.5292,-1.5862 -0.95121,-0.40054 -2.0664,-0.81649 -3.1722,-1.2861 -0.0619,-0.13788 -0.12337,-0.53903 0,-1.1575 0.0331,-0.16606 0.085,-0.34392 0.12861,-0.51443 0.10392,-0.1164 0.18492,-0.21152 0.30007,-0.34296 0.2456,-0.28032 0.50949,-0.57438 0.72875,-0.85738 0.21926,-0.28301 0.39864,-0.52579 0.51441,-0.85739 l 0.0429,-0.0429 c 0.44807,-1.8085 0.44831,-2.5631 0.47155,-3.2152 l 0,-0.0429 c 0,-2.1013 -1.8888,-3.7296 -4.1153,-3.7296 z m 11.772,-3.4224 c -3.2461,0 -5.9999,2.3739 -5.9999,5.4374 0.023,0.9683 0.10964,2.1624 0.68749,4.6874 l 0,0.0625 0.0625,0.0625 c 0.1855,0.53134 0.45545,0.83529 0.81249,1.25 0.35704,0.4147 0.7827,0.90279 1.1875,1.3125 0.0476,0.0482 0.0781,0.0781 0.12499,0.12502 0.0803,0.34932 0.17752,0.72527 0.25,1.0625 0.19284,0.8972 0.17306,1.5326 0.12501,1.75 -1.3949,0.48977 -3.1303,1.073 -4.6874,1.75 -0.87422,0.38005 -1.6653,0.71943 -2.3125,1.125 -0.64717,0.40555 -1.2908,0.71195 -1.5,1.625 -0.003,0.0416 -0.003,0.0834 0,0.12502 -0.20442,1.8769 -0.51363,4.637 -0.74999,6.4999 -0.051,0.39215 0.15566,0.80553 0.49999,0.99999 2.8273,1.5272 7.1704,2.1419 11.5,2.125 4.3294,-0.0168 8.6379,-0.66766 11.375,-2.125 0.34433,-0.19446 0.55102,-0.60784 0.49999,-0.99999 -0.0755,-0.58232 -0.16816,-1.8954 -0.25,-3.1875 -0.0818,-1.292 -0.15288,-2.563 -0.24998,-3.3125 -0.0339,-0.18578 -0.12172,-0.36141 -0.25,-0.49999 -0.86942,-1.0382 -2.1684,-1.6728 -3.6875,-2.3125 -1.3868,-0.58395 -3.0127,-1.1904 -4.6249,-1.875 -0.0902,-0.20102 -0.17988,-0.78586 0,-1.6875 0.0483,-0.2421 0.12394,-0.50141 0.1875,-0.74999 0.15152,-0.1697 0.26961,-0.30838 0.4375,-0.5 0.35807,-0.40868 0.74281,-0.83739 1.0625,-1.25 0.31967,-0.41259 0.58121,-0.76654 0.74999,-1.25 l 0.0625,-0.0625 c 0.65328,-2.6366 0.65362,-3.7367 0.6875,-4.6874 l 0,-0.0625 c 0,-3.0635 -2.7538,-5.4374 -5.9999,-5.4374 z"
       id="path8"
       inkscape:connector-curvature="0"
       sodipodi:nodetypes="cccccccccccscccccccccccccccccccscccccccsccsccsccccccccccccscsscccscc" />
  </g>
  <path
     style="fill:#000000;fill-opacity:1"
     d="M 14.797475,0.26679987 C 12.397926,0.34900905 9.9747444,0.96062995 7.7465731,2.1536323 0.61642357,5.9712398 -1.8488802,14.298349 2.2427048,20.736064 l 2.1717966,0 C 1.244431,15.050535 3.3207046,7.8389312 9.1448531,4.4978785 15.064343,1.1021322 22.616607,3.0026351 26.013465,8.7289527 c 2.201214,3.7107393 2.154914,8.2881133 -0.0595,12.0357003 l 1.874291,0 C 30.681063,16.500602 30.778578,11.166868 28.066259,6.8993013 25.253294,2.4733719 20.076478,0.08593964 14.797475,0.26679987 z"
     id="path2995"
     inkscape:connector-curvature="0" />
  <path
     inkscape:connector-curvature="0"
     style="fill:#ffffff;fill-opacity:1"
     d="M 15.130618,0.83109693 C 12.731071,0.9133061 10.307887,1.5249267 8.0797354,2.7179292 0.94958474,6.5355367 -1.5157162,14.862648 2.5758671,21.300363 l 2.1717966,0 C 1.5775935,15.614834 3.6538673,8.4032279 9.4780025,5.0621753 15.397487,1.666429 22.949751,3.5669319 26.346609,9.2932486 c 2.201215,3.7107424 2.154914,8.2881154 -0.05951,12.0357024 l 1.874291,0 C 31.014207,17.064902 31.111722,11.731168 28.399404,7.4635982 25.586439,3.0376688 20.409622,0.65023669 15.130618,0.83109693 z"
     id="path2995-8" />
</svg>
